<mxfile host="app.diagrams.net" modified="2021-09-16T14:47:30.315Z" agent="5.0 (Windows)" etag="EW_tZ6GmQ90IkOrHTzjm" version="14.9.3" type="github">
  <diagram id="33CeJMLcyT_MC45lD1Ku" name="Page-1">
    <mxGraphModel dx="1730" dy="967" grid="1" gridSize="10" guides="1" tooltips="1" connect="1" arrows="1" fold="1" page="1" pageScale="1" pageWidth="827" pageHeight="1169" math="0" shadow="0">
      <root>
        <mxCell id="0" />
        <mxCell id="1" parent="0" />
        <mxCell id="Jll_CNciHHkXU3aOFgfY-1" value="&lt;div&gt;&lt;b&gt;positive &lt;br&gt;&lt;/b&gt;&lt;/div&gt;&lt;div&gt;&lt;b&gt;events&lt;/b&gt;&lt;/div&gt;" style="ellipse;whiteSpace=wrap;html=1;aspect=fixed;" vertex="1" parent="1">
          <mxGeometry x="220" y="40" width="80" height="80" as="geometry" />
        </mxCell>
        <mxCell id="Jll_CNciHHkXU3aOFgfY-2" value="&lt;b&gt;negative events&lt;br&gt;&lt;/b&gt;" style="ellipse;whiteSpace=wrap;html=1;aspect=fixed;" vertex="1" parent="1">
          <mxGeometry x="50" y="40" width="80" height="80" as="geometry" />
        </mxCell>
        <mxCell id="Jll_CNciHHkXU3aOFgfY-4" value="" style="whiteSpace=wrap;html=1;aspect=fixed;" vertex="1" parent="1">
          <mxGeometry x="30" y="160" width="80" height="80" as="geometry" />
        </mxCell>
        <mxCell id="Jll_CNciHHkXU3aOFgfY-5" value="" style="whiteSpace=wrap;html=1;aspect=fixed;" vertex="1" parent="1">
          <mxGeometry x="40" y="170" width="80" height="80" as="geometry" />
        </mxCell>
        <mxCell id="Jll_CNciHHkXU3aOFgfY-6" value="" style="whiteSpace=wrap;html=1;aspect=fixed;" vertex="1" parent="1">
          <mxGeometry x="50" y="180" width="80" height="80" as="geometry" />
        </mxCell>
        <mxCell id="Jll_CNciHHkXU3aOFgfY-7" value="&lt;b&gt;A&lt;/b&gt;" style="whiteSpace=wrap;html=1;aspect=fixed;" vertex="1" parent="1">
          <mxGeometry x="60" y="190" width="80" height="80" as="geometry" />
        </mxCell>
        <mxCell id="Jll_CNciHHkXU3aOFgfY-8" value="" style="whiteSpace=wrap;html=1;aspect=fixed;" vertex="1" parent="1">
          <mxGeometry x="200" y="160" width="80" height="80" as="geometry" />
        </mxCell>
        <mxCell id="Jll_CNciHHkXU3aOFgfY-9" value="" style="whiteSpace=wrap;html=1;aspect=fixed;" vertex="1" parent="1">
          <mxGeometry x="210" y="170" width="80" height="80" as="geometry" />
        </mxCell>
        <mxCell id="Jll_CNciHHkXU3aOFgfY-10" value="" style="whiteSpace=wrap;html=1;aspect=fixed;" vertex="1" parent="1">
          <mxGeometry x="220" y="180" width="80" height="80" as="geometry" />
        </mxCell>
        <mxCell id="Jll_CNciHHkXU3aOFgfY-11" value="&lt;b&gt;A&lt;/b&gt;" style="whiteSpace=wrap;html=1;aspect=fixed;" vertex="1" parent="1">
          <mxGeometry x="230" y="190" width="80" height="80" as="geometry" />
        </mxCell>
        <mxCell id="Jll_CNciHHkXU3aOFgfY-12" value="" style="whiteSpace=wrap;html=1;aspect=fixed;" vertex="1" parent="1">
          <mxGeometry x="130" y="330" width="80" height="80" as="geometry" />
        </mxCell>
        <mxCell id="Jll_CNciHHkXU3aOFgfY-13" value="" style="whiteSpace=wrap;html=1;aspect=fixed;" vertex="1" parent="1">
          <mxGeometry x="140" y="340" width="80" height="80" as="geometry" />
        </mxCell>
        <mxCell id="Jll_CNciHHkXU3aOFgfY-14" value="" style="whiteSpace=wrap;html=1;aspect=fixed;" vertex="1" parent="1">
          <mxGeometry x="150" y="350" width="80" height="80" as="geometry" />
        </mxCell>
        <mxCell id="Jll_CNciHHkXU3aOFgfY-15" value="&lt;b&gt;B&lt;/b&gt;" style="whiteSpace=wrap;html=1;aspect=fixed;" vertex="1" parent="1">
          <mxGeometry x="160" y="360" width="80" height="80" as="geometry" />
        </mxCell>
        <mxCell id="Jll_CNciHHkXU3aOFgfY-16" value="&lt;b&gt;Saliency Map&lt;br&gt;&lt;/b&gt;" style="whiteSpace=wrap;html=1;aspect=fixed;" vertex="1" parent="1">
          <mxGeometry x="100" y="500" width="160" height="160" as="geometry" />
        </mxCell>
        <mxCell id="Jll_CNciHHkXU3aOFgfY-39" value="&lt;div&gt;&lt;b&gt;positive &lt;br&gt;&lt;/b&gt;&lt;/div&gt;&lt;div&gt;&lt;b&gt;events&lt;/b&gt;&lt;/div&gt;" style="ellipse;whiteSpace=wrap;html=1;aspect=fixed;" vertex="1" parent="1">
          <mxGeometry x="700" y="40" width="80" height="80" as="geometry" />
        </mxCell>
        <mxCell id="Jll_CNciHHkXU3aOFgfY-40" value="&lt;b&gt;negative events&lt;br&gt;&lt;/b&gt;" style="ellipse;whiteSpace=wrap;html=1;aspect=fixed;" vertex="1" parent="1">
          <mxGeometry x="530" y="40" width="80" height="80" as="geometry" />
        </mxCell>
        <mxCell id="Jll_CNciHHkXU3aOFgfY-41" value="" style="whiteSpace=wrap;html=1;aspect=fixed;" vertex="1" parent="1">
          <mxGeometry x="610" y="165" width="80" height="80" as="geometry" />
        </mxCell>
        <mxCell id="Jll_CNciHHkXU3aOFgfY-85" value="" style="whiteSpace=wrap;html=1;aspect=fixed;" vertex="1" parent="1">
          <mxGeometry x="610" y="165" width="20" height="20" as="geometry" />
        </mxCell>
        <mxCell id="Jll_CNciHHkXU3aOFgfY-42" value="" style="whiteSpace=wrap;html=1;aspect=fixed;" vertex="1" parent="1">
          <mxGeometry x="620" y="175" width="80" height="80" as="geometry" />
        </mxCell>
        <mxCell id="Jll_CNciHHkXU3aOFgfY-43" value="" style="whiteSpace=wrap;html=1;aspect=fixed;" vertex="1" parent="1">
          <mxGeometry x="630" y="185" width="80" height="80" as="geometry" />
        </mxCell>
        <mxCell id="Jll_CNciHHkXU3aOFgfY-44" value="&lt;b&gt;C&lt;/b&gt;" style="whiteSpace=wrap;html=1;aspect=fixed;" vertex="1" parent="1">
          <mxGeometry x="640" y="195" width="80" height="80" as="geometry" />
        </mxCell>
        <mxCell id="Jll_CNciHHkXU3aOFgfY-49" value="&lt;b&gt;Proto-object neurons&lt;br&gt;&lt;/b&gt;" style="ellipse;whiteSpace=wrap;html=1;" vertex="1" parent="1">
          <mxGeometry x="540" y="350" width="240" height="80" as="geometry" />
        </mxCell>
        <mxCell id="Jll_CNciHHkXU3aOFgfY-50" value="&lt;b&gt;Saliency Map&lt;br&gt;&lt;/b&gt;" style="whiteSpace=wrap;html=1;aspect=fixed;" vertex="1" parent="1">
          <mxGeometry x="580" y="500" width="160" height="160" as="geometry" />
        </mxCell>
        <mxCell id="Jll_CNciHHkXU3aOFgfY-51" value="" style="endArrow=classic;html=1;exitX=0.5;exitY=1;exitDx=0;exitDy=0;entryX=0.75;entryY=0;entryDx=0;entryDy=0;" edge="1" parent="1" source="Jll_CNciHHkXU3aOFgfY-2" target="Jll_CNciHHkXU3aOFgfY-4">
          <mxGeometry width="50" height="50" relative="1" as="geometry">
            <mxPoint x="320" y="310" as="sourcePoint" />
            <mxPoint x="370" y="260" as="targetPoint" />
          </mxGeometry>
        </mxCell>
        <mxCell id="Jll_CNciHHkXU3aOFgfY-52" value="" style="endArrow=classic;html=1;exitX=0.5;exitY=1;exitDx=0;exitDy=0;entryX=0.75;entryY=0;entryDx=0;entryDy=0;" edge="1" parent="1" source="Jll_CNciHHkXU3aOFgfY-1" target="Jll_CNciHHkXU3aOFgfY-8">
          <mxGeometry width="50" height="50" relative="1" as="geometry">
            <mxPoint x="100" y="130" as="sourcePoint" />
            <mxPoint x="100" y="170" as="targetPoint" />
          </mxGeometry>
        </mxCell>
        <mxCell id="Jll_CNciHHkXU3aOFgfY-53" value="" style="endArrow=classic;html=1;exitX=0.5;exitY=1;exitDx=0;exitDy=0;entryX=0.5;entryY=0;entryDx=0;entryDy=0;" edge="1" parent="1" source="Jll_CNciHHkXU3aOFgfY-40" target="Jll_CNciHHkXU3aOFgfY-41">
          <mxGeometry width="50" height="50" relative="1" as="geometry">
            <mxPoint x="320" y="310" as="sourcePoint" />
            <mxPoint x="370" y="260" as="targetPoint" />
          </mxGeometry>
        </mxCell>
        <mxCell id="Jll_CNciHHkXU3aOFgfY-54" value="" style="endArrow=classic;html=1;exitX=0.5;exitY=1;exitDx=0;exitDy=0;entryX=0.75;entryY=0;entryDx=0;entryDy=0;" edge="1" parent="1" source="Jll_CNciHHkXU3aOFgfY-39" target="Jll_CNciHHkXU3aOFgfY-41">
          <mxGeometry width="50" height="50" relative="1" as="geometry">
            <mxPoint x="320" y="310" as="sourcePoint" />
            <mxPoint x="370" y="260" as="targetPoint" />
          </mxGeometry>
        </mxCell>
        <mxCell id="Jll_CNciHHkXU3aOFgfY-55" value="" style="endArrow=classic;html=1;exitX=0.25;exitY=1;exitDx=0;exitDy=0;entryX=0.5;entryY=0;entryDx=0;entryDy=0;" edge="1" parent="1" source="Jll_CNciHHkXU3aOFgfY-44" target="Jll_CNciHHkXU3aOFgfY-49">
          <mxGeometry width="50" height="50" relative="1" as="geometry">
            <mxPoint x="320" y="310" as="sourcePoint" />
            <mxPoint x="370" y="260" as="targetPoint" />
          </mxGeometry>
        </mxCell>
        <mxCell id="Jll_CNciHHkXU3aOFgfY-56" value="" style="endArrow=classic;html=1;exitX=0.5;exitY=1;exitDx=0;exitDy=0;entryX=0.5;entryY=0;entryDx=0;entryDy=0;" edge="1" parent="1" source="Jll_CNciHHkXU3aOFgfY-49" target="Jll_CNciHHkXU3aOFgfY-50">
          <mxGeometry width="50" height="50" relative="1" as="geometry">
            <mxPoint x="320" y="410" as="sourcePoint" />
            <mxPoint x="370" y="360" as="targetPoint" />
          </mxGeometry>
        </mxCell>
        <mxCell id="Jll_CNciHHkXU3aOFgfY-57" value="" style="endArrow=classic;html=1;exitX=0.5;exitY=1;exitDx=0;exitDy=0;entryX=0.75;entryY=0;entryDx=0;entryDy=0;" edge="1" parent="1" source="Jll_CNciHHkXU3aOFgfY-11" target="Jll_CNciHHkXU3aOFgfY-12">
          <mxGeometry width="50" height="50" relative="1" as="geometry">
            <mxPoint x="320" y="410" as="sourcePoint" />
            <mxPoint x="370" y="360" as="targetPoint" />
          </mxGeometry>
        </mxCell>
        <mxCell id="Jll_CNciHHkXU3aOFgfY-58" value="" style="endArrow=classic;html=1;exitX=0.5;exitY=1;exitDx=0;exitDy=0;entryX=0.5;entryY=0;entryDx=0;entryDy=0;" edge="1" parent="1" source="Jll_CNciHHkXU3aOFgfY-7" target="Jll_CNciHHkXU3aOFgfY-12">
          <mxGeometry width="50" height="50" relative="1" as="geometry">
            <mxPoint x="320" y="410" as="sourcePoint" />
            <mxPoint x="370" y="360" as="targetPoint" />
          </mxGeometry>
        </mxCell>
        <mxCell id="Jll_CNciHHkXU3aOFgfY-59" value="" style="endArrow=classic;html=1;exitX=0.25;exitY=1;exitDx=0;exitDy=0;entryX=0.5;entryY=0;entryDx=0;entryDy=0;" edge="1" parent="1" source="Jll_CNciHHkXU3aOFgfY-15" target="Jll_CNciHHkXU3aOFgfY-16">
          <mxGeometry width="50" height="50" relative="1" as="geometry">
            <mxPoint x="320" y="530" as="sourcePoint" />
            <mxPoint x="370" y="480" as="targetPoint" />
          </mxGeometry>
        </mxCell>
        <mxCell id="Jll_CNciHHkXU3aOFgfY-62" value="&lt;div&gt;A = boarder ownership spatial and roational pyramid&lt;/div&gt;&lt;div&gt;B = Grouping cells&lt;/div&gt;&lt;div&gt;C = Spatial and rotational pyramid of VM filters&lt;br&gt;&lt;/div&gt;" style="text;html=1;align=center;verticalAlign=middle;resizable=0;points=[];autosize=1;strokeColor=none;" vertex="1" parent="1">
          <mxGeometry x="273" y="320" width="280" height="50" as="geometry" />
        </mxCell>
        <mxCell id="Jll_CNciHHkXU3aOFgfY-69" value="" style="group" vertex="1" connectable="0" parent="1">
          <mxGeometry x="750" y="175" width="60" height="60" as="geometry" />
        </mxCell>
        <mxCell id="Jll_CNciHHkXU3aOFgfY-63" value="" style="shape=image;verticalLabelPosition=bottom;labelBackgroundColor=#ffffff;verticalAlign=top;aspect=fixed;imageAspect=0;image=data:image/png,iVBORw0KGgoAAAANSUhEUgAAAF4AAABqCAYAAAA1OebVAAAgAElEQVR4nO2dZ3hc1dW2Tx25gHvvVrVsy92yZFvusuVece8F916wca+S1XvXSNOHEAgJNaGGkkIIhE4IJQQIJIQaYrAN3N+Ps8/MmbEENuX9Yt73x7oAX5el4dlrnlX22uuRrok4w/dtTYWZ/32tsGYR6TSLSKe5xVpEZNAiIoOWFmv1A1lL8btaiM8RtOBnDH7W4L//EBhJP8QPtZr5P9Es4owBtC2dlrYMWtgyaGmxVrYMWtsyaGU7S+sf0FrZzgZ+fwub6QDBz2j9rM0i0rk2Iv3qA94E3fDsdMOjBbimWUFpYztLG1smbX8ga2PLpLUtM+QAjG+Z8flMs34jDfD/i4EP/aoantLMQicmhQQBDgJt/ntb21na2jJpF7As2tmyaP8dzPj75s8yD8H4fa1tZ0NoKPwQrMDXZ/9fgQ/lxVAObxEOeoQJcNAL21msvS2T9rYsOoRZR1v2d7Tgz2ofOAhxABFnaRORQeuwWNBSxILmDcSA73oA3wvwVsCtHN4qjLPbhHl0e1tmGMCGdbJlB6yznk0XPec7mvFzOumhB9FefIZ24tvWxhIHWtkyaGlLp4UtIywGhAbmbxsDvhPw4RzeIozDg4AHvdukgCDQFpCFdbHl0MWWQ1dbLt30XLrrefT4VpZLd2Hd9Fy66sbP7Sx+X+ghGFTUJhALTPAzLuH97yMGfGvgg6CfCXBiywgzO2nIw03vzg4AbgLd1ZZDN2Hdbbl0t+XSw5ZHpJ5HpJ5P9CVWcMmfRdVjkXo+kXoePc2DsOXS1WYeQOghdBDgtxNxp7X41pq0E27Nw6joBwXeym0h2Uo9wbOtCGpWD+9UL+Am0Ln0tOUSacsjypZPtC2fGL2AWL2QOL2AOL2QXgErElYYYnFhFqsXEiMOKVLPo6ctjx7i93Wz5dJNHIL5TTC/AWYMMANwy3rMWhNcKed/K+BNfmsRkU5LW7rg8iCfh1OLlbu7CM7uqucIGsmlh/DIKD2PaD2f2ADYhcRrRcRrRfTRiuijFdNXKyZBKyZBK7nE+l5ixfTRionXiuilFRKrFQQOIUrPp6eeT089j+56Ht30XLrpOQG662gJwuHcb5pZgzQP4fzvGXhrRde8AWqpD/QOIV5uAN5VD+XuSAFEjF5AnF5AvF5Ib72IPnqRALmY/lox/bUSBmilDNRKGaSVfaMN1EoZoJXSTyshQSumj1ZEb/EtiQt8EwoEJRmH382WS1dbLl1s2XSyeH+bgNVTjEVkXDHtXBHwVk5vGQZ8mzBONzOWjrYsQSvZdLXlBIKd4eX5gr8LiNUL6CUA76sXk6CX0E8PAj1YK2WIVsZQrZxErZxhWgVJAasMmhq0YWoFiWoFQ7RyBpsHoZfSTy+hr15Cb72IeL0olI5sefSwGQfQxZZDJ1s2HWzZtLNlXVoDmAE4LPW8HPAvC/h6K9CIDFpFBL086OlWTjc83crlPUKoxQA9Jgz0fnoJA/RSBumlDFHLGKKWkaiWM0ytIFmrZIRWyUitihStilFaNaNUw0aH2Si1ihS1ihFqJcPVSpLUChI14yAGaWX010pJ0EvooxcTrxcZ3wJbAVG2fHra8gKBuLMth4627EDm09aS+VhjQEN5/7cC/hJPt3C6NXMxPT0YRLNC0kMzWzFBj7SAHqcXEq8X0scEXVDJEM0EvJxktYIRaiUpahWj1CrGqtWMU2sYr9qZoNpJVe1MVGuZqAQtVbEzQbEzXq1hrFpjHIZWzUitimStkkStnMF6OQO0UhK0EiMe2IqIsxkHEGnLp4fg/y56Dp30bDro1tTTpJ0MS95v7f00zPkNAl8fp7e4TE5vKFU0gY8U3h5jCaKmt/fXSwS1GLQyTK0IAX2MAHyCameiameyWstkpY6pSh3TFQcz5KBNlx1Mkx1MVeqYotSRptQyUa1lgmpnrFpDilrFcK2SYVpFgIr6Wb4BsXoh0XqBCMAG+J1FEdY+QD3W4Htp3t8Q7TQIfLNwT7/MYGpmLyavXynw/SzAJ2rlJKkVDFcrGKlWMlqtYpxazQTVTppqZ4paxwzVwUzFyRzFyTzFxXWyi/kWu052MU92Mld2MVt2MlNxMk1xMFmpI1UxDmCUWs1wVRyAXs4AvSxwAL30ImJEAO6h59FVz62Hes6G5f3p38j5lwAfzNEb5vT6uomXC3z3r6WaIvrpxQzQShiklTLUAnyKWskYtZrxag0TFTtTlFqmKw5mK07myS4WyC4Wy26WSh6WCVsubJnkYankYbHkZqHk4TrJzRzJxXTJwWS5jolKLWOVGlLUaoZrlSRqFQzWBAXpJcL7g+B3swXB71Bf2vk1nP+1wDeLCFZn4Zz+TcB3qKdICimUGgiuAa8XaeNAkcWY/G54vAH8JMXOVKWWmYqDeYqLBbKbJbKb5bKHVZKXNZKXtZKXdZKP6yUf6yQvayUfayQvqyQfyyUPSyQP88UBzJCdTFHqSFVrBQVVk6xVMlQrZ5Dw/t5aEbFaAVGakfubvB9edF1CO7bQfv+14cA3xOkt6wG8of65NbhaA2wXSzrZTc8R4OcGPD+YwxfSWzPA7ye8fohWzjCtnOFaBaM0g2pMj58pO7hOdrFIcrNc8rBagL1B8rNJ8rNV8rNN8rNN8rFN8rFF8rFZ8rFB8rJO8rJK8rJM8rBIdjNPdjFTEQegGAcwUq0iSfB/P62EPloRcVoh0YHCy2w/ZIu0MzOQ89fH+dbbrgaBb4jTvwl4ay/cGmjNAqpLPQVUTyv4WgG9tUL6akX010oYJIJsklbBSM0IrhMUO5OVWmbIDubJLhZLblZIHtZKXjZIPrZKfrZLfnZLfvbKfvbJfm5QfOwTtlvxskPxsUX2sUH2skb2slzysFD2MFd8A9KUOsYrdlLUapJUA/z+IvPpJYJupJ5Pj0DbIVjttg0D3sr5pvdLVsAbCqZtvgH40Dz+0ravtWXQuZ6WQXcr9Wj5xGkFxNcDfrJmZDZjFYPnp8l1zJWdLBLAr5O8bJL87JBuYo90EwdkP4cUP0c0H8c0H8dsXo7ZvBy1eTmkezmg+dij+Ngu+9go+Vgj+VgmeVkgeZgluZgiOZig2BkVAn6pCLpG0RVpy6eHLU/k+wb47WxZgSq3VQjnB71fqv8C+tsBH37J0TbsYqOhJllXazdSyyNG9Gt66YWBFHOQXspQXVCOUs14pYbJci2zZAcLJBfLhMdvFsDvk2/ikOLnuObjlM1HeiMvZ5t4yGziJrOpm/Qmbk438nDM5uWg5mOPbNDSesnHSsnLIsnDHMnFVNkEv4pkUXwN0EvoqxcTr4mCS883aEc3Kl1rthOa5xu5fgjw4S3Py6Ga+g8i1BpuC2dZevA5osgyuN+abvbSiwKF1SDdSDGHi0CbqtiZphhev1h2s0rysEHysV0y6OWw4uOU7iOjkZecpm4KmrkoauGguIWDwhYOCpo5ybnGRUYjN8d1LzeqPnbLRixYK3lZInmYJ7mYJjtIVeyMVqtJVo2gaxRdFs83c31bdkiqae3vWHs7Uug13XcDvv7DCP0GmHep9V2GmE00M/OJDIBvpppGwE0UBdUYpZpJip0Zch3XyYbXr5N8bBHcflj1cdrmJbOJh4JrXZS2clDZxk5NOzvV7WuobmunorWd4uZ15DR1kt7IzTHdy37Vy3bZyIiWifRzmuxgolLLaMXI+U3wTdoxA263kPZy/d3NlpcL/Hez+qjJuGoLv2ftKGKAyf9W8I1008x2ykjUKhipVjFOrWGyYlDOQsnNSsnLRsnHLtnPQdXHKZuX7KYeipo7qWpbS13HatxdKvF0q8DbtRx3lwrqOlRR2aaG4hZ15Fzj5HRjNwd1H7sUPxskHyskL9dJbmZITibKtYxRahiuVjJEFQFXLyZOgN8j0N8xg21WINi2vhzgg+CnNzhkVN/lQH1m/TutI87SWlwut4kI72haCzDB/YJ6ovV84kzPF72cYVoFKWoVE5Qapip1zJFcLBFcv03ysV/1ccLmJauph+IWTmra2XF3qcTfo4ybo0q4NaaIW2MKuTmyGG+3Muo6VVLZtobCFg4ymro5YjOC7ybJzwrJy3zJzXQB/milmmQz4Io8P04rtFS4Rnuhg54VmmJGXAbwlx7A19vl/d2wAwlrtgUzoVDq6annEW3x/P56CYO1MpK0CkarVQbfyw6uk1wslzxskLzsVnwc1n1kNPFQ2NxJdbsaPF0ruDmqhNviC7ijby539cvmzoRsftE7j1tiC/H1LKW2UyUlrWvJutbFsQgP+1Qfm0TQnW/x/FFKNUlqZUieb1a4gWCrB/s6ba4U+Cu18Avhhg80eDke2vfJEt5vTAZ0EdTTU1S6puf310sYopUxXK1kjFLDJLmWmZKRXq6RvGxTfBzQfJxq5CGvmZOqtjV4upVzS0wRtyfk8KvBZ7k/8TQPDDvNfUPTuWfgWe5IyOWnMUU4u1ZQ3sZOzrVOTkR42ad62SwHwZ8uOZgg20lRgqlmPy3YXggEWz07pKqtF/hwzw2/Tf92dul4XOhIX3CEr1VIUXZWcH8mnfQsOuvZAvw8ogIBt5gBWilD1XJGqFWMU+xMkeuYKwLtBtnHHtXHUZuX7GtcVLSx4+lazq2xBdw1IIsHk07zaMoxHht9hMdGH+WRlOM8mHSaewZk8rO4Ajxdy6lsW0NeMycnTM+XDc6fJ7mZKjkYr9SSolQxTK1gkFZGguhsml1Na4rZ1naW1hEG+N8IvLXH8H1b+KRZy7A40CZCHICeSUc9i86WoBut5wfy/EFaKUlqJaOUalJFRbtQcrNGNrz+Rs1LRhMXJS3tuLqUc0tsAfcMzOThESf43bhDPDHpAH9M288Tk/bz+PhDPDLyOPcOzuDn8Xn4updS1a6G3GZOjjfysFcziq1lkoe5kpspsoPxsp2RahWJWgUD9FL6imAbpefTXTTUzGZamwgjwDYIfHhv4fuwhhpyVjqyxoFWEYaHmPTT0RaknUg9jxi9gHi9iH5aCUNEfj9WqWGyYnq9l42yj72KjxMRbgqa1VHbsZKbYwq5Z2Amj6Qc5w+pB/jTtL08O3MXz87ayTMzdvNE2g08NvoI9w89ze19cvD3LKGqfTU5zRwca+Rlt+pjveRjieRltuRislzHOKWGEWolQ7Ry+uulxIt2ck9R1Zq9HDPDaZDjw+cGr3Qa4fKvFBuOBaEjIyLrEZxvZDv5xOqF9NGKGaiVMUytIEU1vd7JQsnDGsnHdsnHId1D9jUOqtpV448s5q4BWTyScpwnJu3n2Vm7eHH+Vl5etImXF23i+Xlb+dO0Pfxu3EEeTDrJHQnZ+CJLqGhXTXYzF0dsHnYqPtZKPhZJXmZKLiYptYxWq0nSKhiklwW8PtKWL9rIZjvB4Pp6WwY/9IhyKPjB319vDIhID2Q+bUXG00nk+j30XKL1AnpphfTTjCwnWQTayXIdcyW34fWSjxtUL2eauChtY8fTo5Q7+mXz8MgT/DHtBp6fu52/LNnIX1et5Y3Va3htxVr+vHATz8zcyeOpB3go+SS3983B072U8jZ2zjZ1caPmY6vsZ6Xk4zrJwzTZwXjFzgi1iiFaOf1EHz/aVhDo5Vi5/pImWTin//DAX/oQoKEY0DribKD13NmWTTdbDj3F0FMfvYgBWqkorITXSy4WSl7WSD52Kj6ONfKQ37KOuq4V/LxPLg8NP8UTaft5cd42XltxPW+tX8E7m5fy9sZl/G3tKl5Zup7n527nDxMP8GDSKX4en4urSznFLes43djDPs3PBtnPUsnLbNnFJKWOUUo1w9RKBmqG18faConU8wP9+w66kVpKV8LJ/xMHcG3YnzWLCHZLW0dk0DbiLO1tmXS0ZdHFlkN3m9HXMQKtUdUmm1wvOZgreVguGS3ggzYvWc2cVHWs4qdxBdyXeIbHJ97IC3O38/rKtbyzeSnv7VzAP3ct4N3ti3hr4zJeW7mO5+dt4/cTbuTeoWe4NbYAe6dK8po5OBrhZYfqZ7XsY4HsZqrsYJxiZ7haxRC1nH5aCb10s6gy8vqOujEq8oO/CPnuMcBCOaLaNb2+ky2bruIe1wi0xfTXShmqVpCiVJMq1TFDcrNI8nK97GOv7uN0Uzelbe34ooq5Z9BZfjvuEM/P2cHrq9by7vbFvH/DXD48OJsPbpzNe/vm8c62xby2eg3PztnOb8Ye4pcDM7gpqoiKdjVkXOPigM3LJsXHUtnDLNnFRLmOUUqN8PpS+ljy+m56rjGpcLUBb9KN2ecxhqWMLCdKtBT6asUMUssYrlQyTrIzRXJynbid2qn6OdbYS0ErB67uZdzRL5tHRx/l2Zm7eG3VWv6xcyEfHZrFJyem8e9TU/jk+DQ+PDibd7Yv4tUV63h6xm4eTTnGHQnZuLqVUdCyluONPexUjWvF+ZKbqZKTcXItIxSD6xP0kkATrYeeRxfduKu9yoAXXh9oL2QFBqZ62HKJthXQWy+iv1bKMKWCUXINEyUHcyQ3yyUvWxQ/h2w+sps7sXeu5Lb4PH49/AR/mraHV1eu491dC/j42HT+czaNz3Im8FnOBP6TnsaHh2bx9y1L+cuSjTw55QYeSDrFLXH5VHWoJPNaJwd0I4AvlbzMktxMlB2MVmoYJvL63nqx8Pr8wEX5VQW8cfluPFJrYzMpJ1sE2lwibQbXJ2glDFHLGSFXMV42UsslopLdr/tJv8ZNRftqbo4u5P7E0zyRdgN/Wbaed3Yu5OPj0ziXk8r54tFcLB3FhaIx/CcjjfcPzOXN9St5cf5Wfjv+IHcNPIu7ewlFreyciHCzU/ayWvIxX/IGvH64WsVgi9ebBVWXqxV4a3rZPsD1OfS05RGrF9BH0E2yUslY2c5U2cECyc1aycdu1c/Jxh6KW9vx9SjhlwMz+P2EG3lp8Ube3rGIj05M41z+eC5UjuTL2mS+rEnmfNEYPjk9hX/sWcDra9byp5m7eHDEcW6Jy6O6QyWZTZ3sV71slPwskXzMlNxMlOtIUasZqlXQXy+lt6Wg6mbL/e8H/pIiyxYEv02A6026MVoJ8ZpBN4mqcU2YJtcxT3KxUvKxXfFzxOYlv7kDZ+dy7uibxWOjD/P8/C28uW0JH56YxrnCcXxRmwzeIeAbzJe1SXxeOJaPTkzn7zsW89KSjfwu9Ubu6n8WT7cSilrUcszmYYfsZ5XkZ57kYYrsYIxSQ5KZWmqijWAzvP6/GvhQ8IX320IznLYRZpDNprstlyibEWQTtBIGq+WMUKpIVWqZJTlZJnnZLPu5UfWRdY0Te/tKbovL5eERx3hmzjb+tnkZHxyfzrmisXzhHAa3DIDb+sFPBnHRPpxPc1P516E5vH79Kp6auZsHhp3klugCqtpWk97ExT7Vz/WSn0WSl+mSk/GKneGKQTf9tBLitSKixeX4fz3wVvDDx0/MvD5YUBmvSWL1QvroJQwUOf04xc50yckiyct6cS2Y3thNZZtqbokq4IFhJ/nTzJ38dcMK3j860wDenQi/6Ad394Y7+vLlTwbzWWUKH2VM4a2di3lh4WZ+M+Ywd/bJxtm5nNxmDg7pxsEuk7zMklxMlGsZqVQzVK1ggFpKHy1IN1cF8OGH8HXA97QZOX1vkdMPUysYo9QwRXIwX/KwRvKzS/JzMsJDaUs7N/Uo4t4hp/nj1D28tm417x2azX8Kx/GFJxHu7Av3x8F9vfjqzn6c9w7j38Xj+cehubyyah1PpN3AfYPSualnMSWt7Zxo5GGH4mOV5GWu5CJNrmOUXMMwpZKBqkE3sT824M0Aa/J8L72IBK2EoWo5KUo1kySjd7NCTJcd1b0UNqvD07WEewZm8HjaDbyyei3/vHEunxaM5wtvIvyyNzwaA4/FwIO9ufjzQZyrHckHZ6bxt83LeXb2Dh4ZfoLb4vKp6lBFRlMXezUf62QfCySjkh0j20lWqhislpOglQQaZ1ct8Faeb2/LpFOghWAppsT14Ai1ilS5llmSm2WSn82Sn0Oql7xrHDg7lXFnv0x+l3qAl1dcz7v7r+Pf+RO46EuE+3rD76PgiSi++l0sX9ybwOc3DePj/Im8s3shf160md+PPcxdCdnUdakgu5mTG3WjFb1Y8jBDcjJeqmWEXH1JC+GqAr6hFkKwdyN4Xjd5vljwvMjnJReLxWzlAdVLdlMHtR0q+EXfLH4z/iB/XrqBd/bO5995qQbwD/SGJ6Pg2Ui++lMMXzzah/O3D+bTirG8d3Aur61cx5Np+7l3UAaeHqUUtKzjSISXrYoxGDtLcpIq1TFSriZRraC/Vhq4nfpRAG/tWHa1GdeDJs8PELdTY2U70yQXCyUf10t+blC8ZDZxUtO+ktt65/Do2MO8uHgTf9+9kE9yJnLBNwwe7A1PR/HVS5F88WI0F5+I58K9AzjnSOGDkzP42/qVPDNjNw8OO8VN0UWUtLFzorGHHWqQ5ydJDoPn1QoGaMF8/qoH3ryhCrYPzKvBYNNsmFrBGNnOFMnFfMnHWsnPXsVLemMnVe2quLVXLg+PPsILCzfz9s5FfJI9ifO+JL56qA9fPRfNl69GcvHVaC4814sLj/Tjs5uS+ThrCm9vW8IL87bxyMhj3Norn8r21aQ3dbNHM0bD50tupkhOxsj2QD7f58cAvNk0a2NpmnWxmRck+cTrxtBrolrBaLmGyZKLeZKP1ZKf3YqP041dVLSt4qdxefw65SjPz9/C29sX83FmGue9SXz16z58+UI0F9+I4vyb0Zx/OY6Lj/fl858l8u+Ciby7ewEvL9rEb8ce4hd9c7B3qiTrWhf7dS8bxPzlNMnFWKmWZLWKQVoZffRiYvXCqx94s2lm7VZ2F93KXuI+dqhazii5hjTJyVzJy0pxMXKqkYuyNtXcHJvPQyOO8dy8rby1dQkfn03jc28yXz7cly9eiuHCW1F8/k40n/81lgtP9eH8nUP4tGw87x2Yy6vLr+fx1APc2T8TR1cjnz+oe9ksG7OX0yUX46VahitVDNLKjcuRHwvw1mvBrwN+kuRkjuRlheRjh+LjRCMXpW2q+UlMPg8OP8azc7fx1pYlfJwxmc89yXzxcAIX/xzD5+9Ece6f0Xz2VgwXnovn/K8G8Z/qMfzr8CxeX72GP07exz2D0nF3LyW/RR2HbR62yF6WSV5mSm4mSHWMUKoZ/L8R+BTRIp4tbqS2Kz6ON3JR0rqGm6ILeCD5OM/M2c5bm5fycboA/pEELvwlls/+GcV/3o/ms3ejufBSLy48MIBzdSl8cHw6b1y/kqem7eFXQ07j7VlMYctajkZ42GYBPjUM+LgfP/DBFnGKXE2q5GCW5GGZ5GWb7ONYhJvi1jX4owq5P+kEz8zezpublvLRmSl87knm4iMJXHglhnP/iuTTjyI5914k51+J5cLD/fjMPYIPT03lzY3LeXrmLu5LPIkvsoiiVnaORbjZJntZLnmZJXlIlRyMFLm8WUT9rwF+pFzNBKmOmZKbpZKXrbKXoxFuilrZ8UUWcV/SSZ6etYM3Ny0LAv9oX86/GsO593vy6cc9Ofd+T86/Fs3FRxP43DOcj85M4a1Ny3hm1g7uTzqBP6qQ4tY1HG/09cD3+j/gLwf4aAP4TwTwr0dz8bG+fO5N5qP0Kby1eSnPzA4F/pgF+Jn/B/x39PhPrB4vgD/zf8B/C443gLdy/NOzd1zC8edNjv84knP/iuT8qzFceCSBz9zD+fD0VN7cuIynZ+7kvmEn8f8fxwezmiDwRlZjAO9jm+LjWITLAN7MamZv583NS/k43RJc/xJjZDUfRHHuH9FceDmOCw/15zPHSD44MZ2/rV/Bn6bv5t6hp/D2LKaoVS3HRFYTArxSLaYO/ldkNd9DHv9yLJ+/G8W596L57O0YLjwfz/l7B/KfmtG8f2Qmf12zmien7OWXg408vqBFHUdsHrb+b8jj21wm8OGV68lLKtdtonKdHFK5nn87is/ejebzN2K58HRvzt89mE/Lx/HejXN4dcU6/jBxP3cNOIuzaxl5zR0c0j2icvUyQ3IzXqoLXAH+aIBvHdYyMHs1VuCDvRon8yQfqyQ/uxQfpxu5KG9bbfRqRh7lueu2hvRqvvx1X758MYaLf4vi/FvRnH8ljot/6Mv5nyfy76JU/rF3Pn9ZspHfjTvI7QnZ1HauINucs5GDvZpxkjHq8aPp1Xx9dzJfdCdLLulOrpH87FG8pDd2UWl2J0cd4fkFW3h7xyI+yRLdyV/34avno/nitUguvB7NhRfiuPhYAp/fnMTHOWn8fftiXpy/lcdGHeVn8XmWWygv10teFli6k8k/pu7kt+nHL5B8rJP87FO8nG3ipLp9JT+Lz+HRMYd5cdEm/r4rrB//TBRfvhzJF3+O5uKT8Vy4vz/nXCP58PR03ty4nGdn7eKh5JPcHFNIWdsaTjXxsEv1sVryMk9ykSY5GP1j7MebwF96A1UgbqBKjUkD2c50ycUi8wZK8ZLd1GncQPXJ5rFxh3hp6Ube2buAf+dabqCeioLnIvnymRi++E1vLtw5iP9UjeFfR2bz+uq1PDV5H/cNTsfbs4TCVrUcbWQ8/1khXotMlOpIkWuu7hsoE/yGr/5yBPDmm1hjbHuEWsUEuVYUT8a71YOql9xrHDg6lXNHQia/Tb2Rl5ev590bwu5c/xAFT0by1R9i+eKBvpz/aSKfFKXy7j6D3x8ff5C7+2Xh7FpObnMHB23G9PCSsDvXoWo5/bUS4q/GO1cr8KHz8sEpg+C8vCWHV6qZKNUxR0wZbJX8HNG8FDSrw92llLsHZPD4pP38ZdU6/nFATBn4EuFXveGxaPhtNDwcz8U7BvCZcwQfnp3CW1uX8vzc7Tw28hi/iM+jpmMVZ69xsU/zcb3sY6F4hj9WCk4ZmJfdV/WUQUNzNcZ4h3Ht10+M8Y0WjxSMcW0/OyU/J2weSlrU4u9ezK8Gn+GJKXt5de0a3js4x5ir8SbCXX3gwVh4MI6v7kngwk1D+bRsLO8dnUL9BdQAABG6SURBVM1ra9fw1NS9PDD0NDdHFVHWpoZTjUP5fbJcx2i5hiSlkkGWuZrIq2Wu5sonyQoCb2CTxCTZNMnBQsnDOsnPHtnPmUZuKlrXcHNkAfcnnuSpGbt4ff1K/nVkljFJ5kmE2xPgl/FwVx++vGUQn9tH8HF2Gn/fs9CYnxx3kLsTMnF3LSO/RR1HbF62yj6Wm/wu15KiGBMGxiRZ8dUzSRb+RqpZRNgjhYhgRmPMTuYFZieNBwpVTFDszJScLJGMid79qo/Mpi6q21Xxs9g8fj3caBe8sWk5HxybYQDvGga39odf9IVbBvCFcxj/KRzH+8dm8sbGFTwzZwcPDT/ObbF51LSvMiaGNR8bZD+LJS8zJCcTlFpGKNUMUSvop5Uas5P6VTA7GT4t3CwineYNTgtnG48T9Hx6iWnhwBSZXMtcycUKycs22c9h3UduMweOThXc3jubR0cd4bnrtvLm1iV8aA6t1iWBfzD8ZCBfOhM5Xzqaj09P5d09C3l5+XoeT9vPPYPS8fUopqSlmJFX/KyR/FwneZgqOxir2ElSjbtWsyt5VUwLW6klOKb99fPxMXoBvbViBqplJCmVjJFrmCI7mC+5WSP52KX6Od7IS1HLWjzdSrm7/1l+N+4gLy7axNvbFxvz8QXjuFg9gq8cw/iqbhgXylL4NHMS7x2YxxvrV/HM3O08POoot8XnUNupnJxrHNyoecTAqo/ZkptJch2j1OrAa+/AW6irZT6+oYcJwRchwaeXkTbzHZQxoj1cCb4IWSx5WC/72Kf5OdPUTXm7Gn4SVcR9Q87wh0n7eXnpev6+cyEfn5jGudwJnC8dxcWKkVwsHcW5rFQ+ODSLtzcv48+LN/P4pAP8ckg6vp5FlLap4VQjF7tlY8XiQsnLNMnFBLmWEZYXIfFigZzx5vUqA76l5bFx4KV32BuoeLHPJlGtIEU20sjZ4nn9ZtnPQZuPrGYuajpV8rNe+TyUfJKnpu7llRWWN1CZk/gsfzyf54/js6xUPj46g3d3LOLV5et5evoefj3iOLf1zsXeqYKcZqIpJhlBdY7kJs36KEE3+zNX8RsoI5M5G+btwd0GsTbj1d9A8QxnjGwXjTE3qyQv21U/Rxt5yW/pwNGtnNv75vBIyjGembE7+Orv8Ez+fWoKn6an8enpyXx8dAb/3D2fv65ZzXNzdvDbsYe5e0Am3p4lFLe2c6qJmz2qMTm2UPIYDxLMuXjrC2/LAqFOV9urv8ArkBBuN9+55gcXSqjljFSqmCDVMl1yGWmk7GOP5uNUUw8lbWrxRpZw98BMfjv2MM/N3ineuS7igwNz+OjwTD48PJP3D8zhH7sW8Ma6lbxw3RZ+n3oj9w89w09jC6juUEVWMycHI7xsUUxvN2biRwtvt3Yjzf01ncPfuf7/fNV9pcBbezPdQ1oExnRwkthnkCbmaJZJXjbJPg7YvJy91kVlh2puji3k3qHpPJ560HjZvWot72xZwr92z+dfe6/jn7sX8PetS3hj7SpeWriZJ9L28WDySX7ROxdnl3IKW9ZxorGH3WIefqHsYbpYoTJCqRItgmBvxlwIbW5sksKLk8tZOv99g9vwPhvrAtLQXQbWTCZaD75vHaoZS4MmKHamSU7mS8YzyO2Kj6MRHvJaOKjtUsHPeufxYPIpnphk7jJYx9sblvPu1iW8s2UJb21Ywesr1/LSgi08OWUfD484zh0J2Xi7l1LWxk5GEzf7dR+bFT/LJS9zZRdpStDbAw/OxC6D7pZdBu1smcHtHdaXdd9VXOrKgG94i1PzkEym/tUpUXo+cZoomLQykrRKRis1pMl1zJZcLJG8rJd87FW9nGrspri1HVf3Mm5PyOHXYnvHC3O388rSDbyxZjVvrlvJX1ev5pWl63lh7laenLyPR1KOcfeATG6KLKaqfQ3Z1zo5onvZLvL2BZKHGbKTCYqxMGioZnQie+tFxFi2d3S2ZdPeXCJR3+6wcJWXH3pfTX1rW0K2dtgsE8FiTVZ3PSfQ/u2tic0dajkjTW8XufsqycdWycdBzUNmUycV7arxRRZzV39jX80f0/bz3Oyd/HnBFl5ZsoFXlmzgpQWbeHbWTv4wcT+PjDzGPQMzuTmmkJqOVeQ1NzY17VZ8rJf9gWVBaUodY9QakrVKBunl9NVDCyZT7CWwr+abNjT9Ty0Kqm9zXytxtdfWmsXo2XS1bOUzu5CDtXJjV41aQ5pSx2zZyVLJw3rJ2J563OYhr1kd9g6V/CS6iLvNDU0TD/D09D08N3sHz8/dxvOzd/DUtD38fvxBHko+wd39M/lpTBG1nSopaFnHqSYe9mlGzFgespvM9PZy8YzeUFzoKfL2TmLXfNvLAf6H30l2JsSzw3dUthELI9oHeN3YxN0jZA+lcdkxTK0gRfRlppveLhtNqwOqlzON3RS3qMXZuULsJDvLwyNP8PvxB/lj2n6emrKPJ6fs44lJB/jN6CM8kHiaO/tm85PIYmo7VlHYso7TjQ1e3yK28RkbWJ2kyrWBxc8DxbL/OFEwmU/ozU3bbSKMXcOXuYWv4U1638Wai95LcBNf6I5icxNrR93cyhTcvhoXCKglDFHLGC62bKfJdcwRuwuul33sUnwc0b1kNXVR3tqOu2s5t8YVcPeATB5KPsVjo4/y23GH+d24w/xmzBEeGXmCe4ek84s+edzUswR7hyqKWjg409jNAc3HVsVo+y4Q+ydTA8s/KxmiiSX/5vN5sSDIuui53i18l7ND8vu0FhGmknFQlNG6+raDLSvA6cYqLOOSI1aoK/TTzXVYFYxWqpko1zJdMrZrr5KM/PoG1cfJRh5ymzmpNPdOxhZyR78c7h2SwYNJp3go+SQPJp3ivqHp3D0gi5/1ysfbo4zq9jUUNHdwprGHA5oxYbxavPSYGdi4WhMAvb9mgB6nm5mMuSbFsl37h1z4+XVm3br69ZtWhdqCZeVhlBBziRcCXYP04Jrb8YqxLGKuWGm+XvKyU/FxSPOR3thDQWDTajk/jS7m573zuatfNvcMyOSeAZncmZDNbfF53BxdjKtrORXt7OQ1d3KqkYcDmo9tsrGTZpHkZpbkJE2uZUzA08sZICTu4oSQlzVvt3L7ZW9aDV9L+22svr3E1t3C1g2rZo7eOSBtkRtY6m96eoJmPJc3FzuPV4zFzrPFEv/VkpctkuHtx3UfmU09FFl2C9/Us4xbYoq5La6Q2+IKuDWmkJ/0LMHdtQx7h2pKWteSfa2LE4283KAaS99MTzdAr2OsudhZBNM+WjG9LDIW3UzpoivdLRwA/Hvcph2+Y/7StebBlbahO4WNRf7xQvtvoFBQGK5WMlatJk2xM0N2MF9ysUJkMjtlX8g27eIWTqrb2nF0qsLTtQJf93L83cvwdSvD1bkCe/tqylvZKWjuIKOJm6M2L3tVP5slH6sl4w51lmgJjBPb9oaqxirzvhYFBXMtiilXat0rfFnbtL/L/vhwMXSrJvelUhZWtTRD/bJbvYuci0gQGlFDVCN1HC2EWqYLyYolkjugmrDHsj8+q4mHwmYuylvXUd2uhtoONdR2rKa2QzXV7Woob1VLQTMHWU1cnIrwcEg3FkJvlI33qgslNzMtnj5SrSJRrWCQAN1c7hlpWQRk1Ydta/uW++OvfFl/w1LRodquoco5hghjDj3DVpcboBczQC9jiMjXR1nWl8+WHSyUXawUignbTMUE1ccp3cvZxl5yr3FT2NxJScs6ylrVUdKqjuIWDvKbOQOAH9G83CA0Q9aLNu8Cyc1M2ckkoZQzQq0iUSs3VNK0oEKaGUyDW1WDQi31Lu6/HI2QK5GmuFQh4VKVnFBJuuwQgS6TWsxl/aZMxUC9lCG6oY6TolQxTqkhTTYkieZLLpaKDdqmOMs++SYOK35OaD5OR3g529hDdlM3Ode4yLnGRdY1LjKauDkV4eGo7mW/4mOnZFDLWiHSYizrdzBJqWWMWs0ItZKhqgF6gia0oS5RRQv19BBFNFMPMCL9+1fFCVfGqU8Vp7OeY1HGCepCRep5RGv5xGrG9tQ+WpEF9DKSdEOIa4xiUMxUkbNbVXFMcZa90k3cKPs5ovo5pvk4oXs5GeHlZISHExEeoYxjLPffrRjyFtdbhFnmSm6mSY6AQkKINkhACzCohGkqIVtVEupVxTHFWerbtNr8ijy+fv2Py9OBsgpxiSAqpIj6aEX004qDCmhaOSM0Q+9vvFJDWgM6UBsF1ewUC4H2y372K8ZWpgPCblC97FF9AS2o9bIhxrVUqKHNEmo4qbKxLziQvWil9NWKiReBNEoPyo8GtV8v1fxuFdIREDpQ4e3Z70OAK1x+yCovatV/MgE3FHCMatTUfzJALwmAPlyrIEUz5ERTv0b57HoxordF7KXZYZrsZ7ts5OObZUP9bK3kZaXkYansYYHsZo7sYrriMMS3VEP/KVkLBb2XFgykpu5fFwuvm3qvDQlwNah8Zp1dMVqyV671Z+VwU2rI1Pozi6FL5eYMyWjT0weIJc2JWjnJWgUjtUpGa0GRxakC+Hmyi4WSIa64QvIGZOeul3xskIxd7xskI1heL/h7lWQ8k1kkFG9my06mywbgE1Q7Y9QaRmpVDNMqAhVpIE/XgmoIXXVDZDc0mJ4VFBPU+gtvOl4TcQXqlq3Mfe7fALxVZMuqbmkVWQxXt4y1qFsmaFZ1y7KvVbecoTiYozi5TnaxUHazRDaULFdIXlZIXlYKWyF5WC6oZLHkYYHkZp6oQKcKwMcrQcCThMDiQEvvxVS96Rnm5YbmU2ao4FaA00N7XdZOb713rg0F21b1UM930XM1gBdq9Bahrfr0XFMseq6pqp00tZapSh0zFQezZSdzZSfzZUPpcqHVJDcLhK6roenqYqbsZJrsYJJcGwRcrSJJBNBBWhn99VL6WiRFzTZANz2UWqxCW0FON+glHHQrxlekYPxDCela9br71wO8qWA8yqJgnKramaTWMkWtY6riYLpiCOrOkq3mYKbsYIbiYJqpYqzWMVGtZbxqKJmZMtLhgPfWi4nTi4gROXogXdQv5fNwKdH6OD0c38vU7Lbk95dodofm7PVx/JV6fLhmd5JaznAL+KMDet3GAaSqtUxSa0lTa5ms1JJmsYlKLalC13ucWsMYrSag252kVQQB10pI0IrprRfRSxRFUaK1G5QWMtaQ1y8n9/Wc/q2Ab+i1nVWlPlxUMZTrQ1Xqe4aBbwoqmhVqf80CvlrOULUsRDB9pFbJKKFQP0arZoxawxghiG61MUKtPkWtYqRaZSjVC4XiIaL6DHp4Eb30QmJtBUTbgqqVoVlLqFJ9oEVyGZx+xcCbFsr5FgWbeqrWdrZQHb/QlkBQxdjMaqzg9xHg99NLArRjCOoawTZRq2CYVkGyVkmyVsnwEDPANS1ZrSRJNYAeqpUzWCtjkF7GAN0QRe+rF9Nb6HLH6gXE6PlE2vICuXlQOs4E3CyMLMWR7VKZ6MtRnLhs4L8t53cI4XyjUu2mh0pIGxlOfojn99GLDfF0rYR+WgkDNPMQyhisGT2bb7LBWhmDtDIGaKUBKjHALiJeZCqmEn2UqUpsyw14ebhen5Vawnsv38Tp3xn4K+X89mGc3yWkXWD1/tBCKs4MulqRkJM2Us0EcRD9tdLAoTRkCVoxfbVi+mhFxGtF9NKMeBKjFwQUiM3A2V1U0wbg9RdEra3VaKD3knFZnP6tgb88zs+4xOtN2ulgoZ1OQmo5JOjacukpXnRE2fKJtuUTYzMoyDyEeBGE4/UieguL/xrrJQJ3rKgXovT8QG+lh6ATg1JyA6LuHUOoRTS5IoI8bhWXbFGPp/9gwF8KfnhTLfSiw+r59XcngwVWd2E9xFumnuIhmflNiBEAXq4ZFGIAHqnn0UPPFVSSI0TODQcwLy0u5fIglQRv4uobg7nyybvvNLT6TZz/dWLq9fdygkHYWumaseDbWA8TcD2XbroJeBDsTuJzdAjj8pAUsYFr0Sull+8V+EuGksRTGatwYvBS5GxYBzO8bRy8GAnvZgYt54qsi+WfnfX6wM60lPxhgrc2YwqioSkJc8zx2wD//wDm0WJ34xyyYQAAAABJRU5ErkJggg==;" vertex="1" parent="Jll_CNciHHkXU3aOFgfY-69">
          <mxGeometry y="0.5156934597831755" width="48.250780201608364" height="54.41045426989879" as="geometry" />
        </mxCell>
        <mxCell id="Jll_CNciHHkXU3aOFgfY-64" value="" style="group" vertex="1" connectable="0" parent="Jll_CNciHHkXU3aOFgfY-69">
          <mxGeometry x="1.6260280017684619" width="58.37397199823153" height="60" as="geometry" />
        </mxCell>
        <mxCell id="Jll_CNciHHkXU3aOFgfY-65" value="" style="verticalLabelPosition=bottom;verticalAlign=top;html=1;shape=mxgraph.basic.moon;strokeColor=#000000;strokeWidth=3;fillColor=none;rotation=-155;" vertex="1" parent="Jll_CNciHHkXU3aOFgfY-64">
          <mxGeometry x="8.861635977009996" y="5.874609899195819" width="40.65070004421155" height="48.250780201608364" as="geometry" />
        </mxCell>
        <mxCell id="Jll_CNciHHkXU3aOFgfY-66" value="" style="line;strokeWidth=2;html=1;fillColor=none;dashed=1;dashPattern=1 1;" vertex="1" parent="Jll_CNciHHkXU3aOFgfY-64">
          <mxGeometry x="33.604578703214884" y="25.89355062113971" width="12.466214680224875" height="5.1330617235753575" as="geometry" />
        </mxCell>
        <mxCell id="Jll_CNciHHkXU3aOFgfY-67" value="" style="line;strokeWidth=2;html=1;fillColor=none;rotation=-45;dashed=1;dashPattern=1 1;" vertex="1" parent="Jll_CNciHHkXU3aOFgfY-64">
          <mxGeometry x="28.932241612172028" y="13.209755102184987" width="11.040730132007859" height="5.1330617235753575" as="geometry" />
        </mxCell>
        <mxCell id="Jll_CNciHHkXU3aOFgfY-68" value="" style="line;strokeWidth=2;html=1;fillColor=none;rotation=45;dashed=1;dashPattern=1 1;" vertex="1" parent="Jll_CNciHHkXU3aOFgfY-64">
          <mxGeometry x="28.932241612172028" y="39.60395848480951" width="11.040730132007859" height="5.1330617235753575" as="geometry" />
        </mxCell>
        <mxCell id="Jll_CNciHHkXU3aOFgfY-77" value="" style="whiteSpace=wrap;html=1;aspect=fixed;" vertex="1" parent="1">
          <mxGeometry x="700" y="195" width="20" height="20" as="geometry" />
        </mxCell>
        <mxCell id="Jll_CNciHHkXU3aOFgfY-78" value="" style="group;rotation=-180;" vertex="1" connectable="0" parent="1">
          <mxGeometry x="480" y="130" width="90" height="90" as="geometry" />
        </mxCell>
        <mxCell id="Jll_CNciHHkXU3aOFgfY-79" value="" style="shape=image;verticalLabelPosition=bottom;labelBackgroundColor=#ffffff;verticalAlign=top;aspect=fixed;imageAspect=0;image=data:image/png,iVBORw0KGgoAAAANSUhEUgAAAF4AAABqCAYAAAA1OebVAAAgAElEQVR4nO2dZ3hc1dW2Tx25gHvvVrVsy92yZFvusuVece8F916wca+S1XvXSNOHEAgJNaGGkkIIhE4IJQQIJIQaYrAN3N+Ps8/MmbEENuX9Yt73x7oAX5el4dlrnlX22uuRrok4w/dtTYWZ/32tsGYR6TSLSKe5xVpEZNAiIoOWFmv1A1lL8btaiM8RtOBnDH7W4L//EBhJP8QPtZr5P9Es4owBtC2dlrYMWtgyaGmxVrYMWtsyaGU7S+sf0FrZzgZ+fwub6QDBz2j9rM0i0rk2Iv3qA94E3fDsdMOjBbimWUFpYztLG1smbX8ga2PLpLUtM+QAjG+Z8flMs34jDfD/i4EP/aoantLMQicmhQQBDgJt/ntb21na2jJpF7As2tmyaP8dzPj75s8yD8H4fa1tZ0NoKPwQrMDXZ/9fgQ/lxVAObxEOeoQJcNAL21msvS2T9rYsOoRZR1v2d7Tgz2ofOAhxABFnaRORQeuwWNBSxILmDcSA73oA3wvwVsCtHN4qjLPbhHl0e1tmGMCGdbJlB6yznk0XPec7mvFzOumhB9FefIZ24tvWxhIHWtkyaGlLp4UtIywGhAbmbxsDvhPw4RzeIozDg4AHvdukgCDQFpCFdbHl0MWWQ1dbLt30XLrrefT4VpZLd2Hd9Fy66sbP7Sx+X+ghGFTUJhALTPAzLuH97yMGfGvgg6CfCXBiywgzO2nIw03vzg4AbgLd1ZZDN2Hdbbl0t+XSw5ZHpJ5HpJ5P9CVWcMmfRdVjkXo+kXoePc2DsOXS1WYeQOghdBDgtxNxp7X41pq0E27Nw6joBwXeym0h2Uo9wbOtCGpWD+9UL+Am0Ln0tOUSacsjypZPtC2fGL2AWL2QOL2AOL2QXgErElYYYnFhFqsXEiMOKVLPo6ctjx7i93Wz5dJNHIL5TTC/AWYMMANwy3rMWhNcKed/K+BNfmsRkU5LW7rg8iCfh1OLlbu7CM7uqucIGsmlh/DIKD2PaD2f2ADYhcRrRcRrRfTRiuijFdNXKyZBKyZBK7nE+l5ixfTRionXiuilFRKrFQQOIUrPp6eeT089j+56Ht30XLrpOQG662gJwuHcb5pZgzQP4fzvGXhrRde8AWqpD/QOIV5uAN5VD+XuSAFEjF5AnF5AvF5Ib72IPnqRALmY/lox/bUSBmilDNRKGaSVfaMN1EoZoJXSTyshQSumj1ZEb/EtiQt8EwoEJRmH382WS1dbLl1s2XSyeH+bgNVTjEVkXDHtXBHwVk5vGQZ8mzBONzOWjrYsQSvZdLXlBIKd4eX5gr8LiNUL6CUA76sXk6CX0E8PAj1YK2WIVsZQrZxErZxhWgVJAasMmhq0YWoFiWoFQ7RyBpsHoZfSTy+hr15Cb72IeL0olI5sefSwGQfQxZZDJ1s2HWzZtLNlXVoDmAE4LPW8HPAvC/h6K9CIDFpFBL086OlWTjc83crlPUKoxQA9Jgz0fnoJA/RSBumlDFHLGKKWkaiWM0ytIFmrZIRWyUitihStilFaNaNUw0aH2Si1ihS1ihFqJcPVSpLUChI14yAGaWX010pJ0EvooxcTrxcZ3wJbAVG2fHra8gKBuLMth4627EDm09aS+VhjQEN5/7cC/hJPt3C6NXMxPT0YRLNC0kMzWzFBj7SAHqcXEq8X0scEXVDJEM0EvJxktYIRaiUpahWj1CrGqtWMU2sYr9qZoNpJVe1MVGuZqAQtVbEzQbEzXq1hrFpjHIZWzUitimStkkStnMF6OQO0UhK0EiMe2IqIsxkHEGnLp4fg/y56Dp30bDro1tTTpJ0MS95v7f00zPkNAl8fp7e4TE5vKFU0gY8U3h5jCaKmt/fXSwS1GLQyTK0IAX2MAHyCameiameyWstkpY6pSh3TFQcz5KBNlx1Mkx1MVeqYotSRptQyUa1lgmpnrFpDilrFcK2SYVpFgIr6Wb4BsXoh0XqBCMAG+J1FEdY+QD3W4Htp3t8Q7TQIfLNwT7/MYGpmLyavXynw/SzAJ2rlJKkVDFcrGKlWMlqtYpxazQTVTppqZ4paxwzVwUzFyRzFyTzFxXWyi/kWu052MU92Mld2MVt2MlNxMk1xMFmpI1UxDmCUWs1wVRyAXs4AvSxwAL30ImJEAO6h59FVz62Hes6G5f3p38j5lwAfzNEb5vT6uomXC3z3r6WaIvrpxQzQShiklTLUAnyKWskYtZrxag0TFTtTlFqmKw5mK07myS4WyC4Wy26WSh6WCVsubJnkYankYbHkZqHk4TrJzRzJxXTJwWS5jolKLWOVGlLUaoZrlSRqFQzWBAXpJcL7g+B3swXB71Bf2vk1nP+1wDeLCFZn4Zz+TcB3qKdICimUGgiuAa8XaeNAkcWY/G54vAH8JMXOVKWWmYqDeYqLBbKbJbKb5bKHVZKXNZKXtZKXdZKP6yUf6yQvayUfayQvqyQfyyUPSyQP88UBzJCdTFHqSFVrBQVVk6xVMlQrZ5Dw/t5aEbFaAVGakfubvB9edF1CO7bQfv+14cA3xOkt6wG8of65NbhaA2wXSzrZTc8R4OcGPD+YwxfSWzPA7ye8fohWzjCtnOFaBaM0g2pMj58pO7hOdrFIcrNc8rBagL1B8rNJ8rNV8rNN8rNN8rFN8rFF8rFZ8rFB8rJO8rJK8rJM8rBIdjNPdjFTEQegGAcwUq0iSfB/P62EPloRcVoh0YHCy2w/ZIu0MzOQ89fH+dbbrgaBb4jTvwl4ay/cGmjNAqpLPQVUTyv4WgG9tUL6akX010oYJIJsklbBSM0IrhMUO5OVWmbIDubJLhZLblZIHtZKXjZIPrZKfrZLfnZLfvbKfvbJfm5QfOwTtlvxskPxsUX2sUH2skb2slzysFD2MFd8A9KUOsYrdlLUapJUA/z+IvPpJYJupJ5Pj0DbIVjttg0D3sr5pvdLVsAbCqZtvgH40Dz+0ravtWXQuZ6WQXcr9Wj5xGkFxNcDfrJmZDZjFYPnp8l1zJWdLBLAr5O8bJL87JBuYo90EwdkP4cUP0c0H8c0H8dsXo7ZvBy1eTmkezmg+dij+Ngu+9go+Vgj+VgmeVkgeZgluZgiOZig2BkVAn6pCLpG0RVpy6eHLU/k+wb47WxZgSq3VQjnB71fqv8C+tsBH37J0TbsYqOhJllXazdSyyNG9Gt66YWBFHOQXspQXVCOUs14pYbJci2zZAcLJBfLhMdvFsDvk2/ikOLnuObjlM1HeiMvZ5t4yGziJrOpm/Qmbk438nDM5uWg5mOPbNDSesnHSsnLIsnDHMnFVNkEv4pkUXwN0EvoqxcTr4mCS883aEc3Kl1rthOa5xu5fgjw4S3Py6Ga+g8i1BpuC2dZevA5osgyuN+abvbSiwKF1SDdSDGHi0CbqtiZphhev1h2s0rysEHysV0y6OWw4uOU7iOjkZecpm4KmrkoauGguIWDwhYOCpo5ybnGRUYjN8d1LzeqPnbLRixYK3lZInmYJ7mYJjtIVeyMVqtJVo2gaxRdFs83c31bdkiqae3vWHs7Uug13XcDvv7DCP0GmHep9V2GmE00M/OJDIBvpppGwE0UBdUYpZpJip0Zch3XyYbXr5N8bBHcflj1cdrmJbOJh4JrXZS2clDZxk5NOzvV7WuobmunorWd4uZ15DR1kt7IzTHdy37Vy3bZyIiWifRzmuxgolLLaMXI+U3wTdoxA263kPZy/d3NlpcL/Hez+qjJuGoLv2ftKGKAyf9W8I1008x2ykjUKhipVjFOrWGyYlDOQsnNSsnLRsnHLtnPQdXHKZuX7KYeipo7qWpbS13HatxdKvF0q8DbtRx3lwrqOlRR2aaG4hZ15Fzj5HRjNwd1H7sUPxskHyskL9dJbmZITibKtYxRahiuVjJEFQFXLyZOgN8j0N8xg21WINi2vhzgg+CnNzhkVN/lQH1m/TutI87SWlwut4kI72haCzDB/YJ6ovV84kzPF72cYVoFKWoVE5Qapip1zJFcLBFcv03ysV/1ccLmJauph+IWTmra2XF3qcTfo4ybo0q4NaaIW2MKuTmyGG+3Muo6VVLZtobCFg4ymro5YjOC7ybJzwrJy3zJzXQB/milmmQz4Io8P04rtFS4Rnuhg54VmmJGXAbwlx7A19vl/d2wAwlrtgUzoVDq6annEW3x/P56CYO1MpK0CkarVQbfyw6uk1wslzxskLzsVnwc1n1kNPFQ2NxJdbsaPF0ruDmqhNviC7ijby539cvmzoRsftE7j1tiC/H1LKW2UyUlrWvJutbFsQgP+1Qfm0TQnW/x/FFKNUlqZUieb1a4gWCrB/s6ba4U+Cu18Avhhg80eDke2vfJEt5vTAZ0EdTTU1S6puf310sYopUxXK1kjFLDJLmWmZKRXq6RvGxTfBzQfJxq5CGvmZOqtjV4upVzS0wRtyfk8KvBZ7k/8TQPDDvNfUPTuWfgWe5IyOWnMUU4u1ZQ3sZOzrVOTkR42ad62SwHwZ8uOZgg20lRgqlmPy3YXggEWz07pKqtF/hwzw2/Tf92dul4XOhIX3CEr1VIUXZWcH8mnfQsOuvZAvw8ogIBt5gBWilD1XJGqFWMU+xMkeuYKwLtBtnHHtXHUZuX7GtcVLSx4+lazq2xBdw1IIsHk07zaMoxHht9hMdGH+WRlOM8mHSaewZk8rO4Ajxdy6lsW0NeMycnTM+XDc6fJ7mZKjkYr9SSolQxTK1gkFZGguhsml1Na4rZ1naW1hEG+N8IvLXH8H1b+KRZy7A40CZCHICeSUc9i86WoBut5wfy/EFaKUlqJaOUalJFRbtQcrNGNrz+Rs1LRhMXJS3tuLqUc0tsAfcMzOThESf43bhDPDHpAH9M288Tk/bz+PhDPDLyOPcOzuDn8Xn4updS1a6G3GZOjjfysFcziq1lkoe5kpspsoPxsp2RahWJWgUD9FL6imAbpefTXTTUzGZamwgjwDYIfHhv4fuwhhpyVjqyxoFWEYaHmPTT0RaknUg9jxi9gHi9iH5aCUNEfj9WqWGyYnq9l42yj72KjxMRbgqa1VHbsZKbYwq5Z2Amj6Qc5w+pB/jTtL08O3MXz87ayTMzdvNE2g08NvoI9w89ze19cvD3LKGqfTU5zRwca+Rlt+pjveRjieRltuRislzHOKWGEWolQ7Ry+uulxIt2ck9R1Zq9HDPDaZDjw+cGr3Qa4fKvFBuOBaEjIyLrEZxvZDv5xOqF9NGKGaiVMUytIEU1vd7JQsnDGsnHdsnHId1D9jUOqtpV448s5q4BWTyScpwnJu3n2Vm7eHH+Vl5etImXF23i+Xlb+dO0Pfxu3EEeTDrJHQnZ+CJLqGhXTXYzF0dsHnYqPtZKPhZJXmZKLiYptYxWq0nSKhiklwW8PtKWL9rIZjvB4Pp6WwY/9IhyKPjB319vDIhID2Q+bUXG00nk+j30XKL1AnpphfTTjCwnWQTayXIdcyW34fWSjxtUL2eauChtY8fTo5Q7+mXz8MgT/DHtBp6fu52/LNnIX1et5Y3Va3htxVr+vHATz8zcyeOpB3go+SS3983B072U8jZ2zjZ1caPmY6vsZ6Xk4zrJwzTZwXjFzgi1iiFaOf1EHz/aVhDo5Vi5/pImWTin//DAX/oQoKEY0DribKD13NmWTTdbDj3F0FMfvYgBWqkorITXSy4WSl7WSD52Kj6ONfKQ37KOuq4V/LxPLg8NP8UTaft5cd42XltxPW+tX8E7m5fy9sZl/G3tKl5Zup7n527nDxMP8GDSKX4en4urSznFLes43djDPs3PBtnPUsnLbNnFJKWOUUo1w9RKBmqG18faConU8wP9+w66kVpKV8LJ/xMHcG3YnzWLCHZLW0dk0DbiLO1tmXS0ZdHFlkN3m9HXMQKtUdUmm1wvOZgreVguGS3ggzYvWc2cVHWs4qdxBdyXeIbHJ97IC3O38/rKtbyzeSnv7VzAP3ct4N3ti3hr4zJeW7mO5+dt4/cTbuTeoWe4NbYAe6dK8po5OBrhZYfqZ7XsY4HsZqrsYJxiZ7haxRC1nH5aCb10s6gy8vqOujEq8oO/CPnuMcBCOaLaNb2+ky2bruIe1wi0xfTXShmqVpCiVJMq1TFDcrNI8nK97GOv7uN0Uzelbe34ooq5Z9BZfjvuEM/P2cHrq9by7vbFvH/DXD48OJsPbpzNe/vm8c62xby2eg3PztnOb8Ye4pcDM7gpqoiKdjVkXOPigM3LJsXHUtnDLNnFRLmOUUqN8PpS+ljy+m56rjGpcLUBb9KN2ecxhqWMLCdKtBT6asUMUssYrlQyTrIzRXJynbid2qn6OdbYS0ErB67uZdzRL5tHRx/l2Zm7eG3VWv6xcyEfHZrFJyem8e9TU/jk+DQ+PDibd7Yv4tUV63h6xm4eTTnGHQnZuLqVUdCyluONPexUjWvF+ZKbqZKTcXItIxSD6xP0kkATrYeeRxfduKu9yoAXXh9oL2QFBqZ62HKJthXQWy+iv1bKMKWCUXINEyUHcyQ3yyUvWxQ/h2w+sps7sXeu5Lb4PH49/AR/mraHV1eu491dC/j42HT+czaNz3Im8FnOBP6TnsaHh2bx9y1L+cuSjTw55QYeSDrFLXH5VHWoJPNaJwd0I4AvlbzMktxMlB2MVmoYJvL63nqx8Pr8wEX5VQW8cfluPFJrYzMpJ1sE2lwibQbXJ2glDFHLGSFXMV42UsslopLdr/tJv8ZNRftqbo4u5P7E0zyRdgN/Wbaed3Yu5OPj0ziXk8r54tFcLB3FhaIx/CcjjfcPzOXN9St5cf5Wfjv+IHcNPIu7ewlFreyciHCzU/ayWvIxX/IGvH64WsVgi9ebBVWXqxV4a3rZPsD1OfS05RGrF9BH0E2yUslY2c5U2cECyc1aycdu1c/Jxh6KW9vx9SjhlwMz+P2EG3lp8Ube3rGIj05M41z+eC5UjuTL2mS+rEnmfNEYPjk9hX/sWcDra9byp5m7eHDEcW6Jy6O6QyWZTZ3sV71slPwskXzMlNxMlOtIUasZqlXQXy+lt6Wg6mbL/e8H/pIiyxYEv02A6026MVoJ8ZpBN4mqcU2YJtcxT3KxUvKxXfFzxOYlv7kDZ+dy7uibxWOjD/P8/C28uW0JH56YxrnCcXxRmwzeIeAbzJe1SXxeOJaPTkzn7zsW89KSjfwu9Ubu6n8WT7cSilrUcszmYYfsZ5XkZ57kYYrsYIxSQ5KZWmqijWAzvP6/GvhQ8IX320IznLYRZpDNprstlyibEWQTtBIGq+WMUKpIVWqZJTlZJnnZLPu5UfWRdY0Te/tKbovL5eERx3hmzjb+tnkZHxyfzrmisXzhHAa3DIDb+sFPBnHRPpxPc1P516E5vH79Kp6auZsHhp3klugCqtpWk97ExT7Vz/WSn0WSl+mSk/GKneGKQTf9tBLitSKixeX4fz3wVvDDx0/MvD5YUBmvSWL1QvroJQwUOf04xc50yckiyct6cS2Y3thNZZtqbokq4IFhJ/nTzJ38dcMK3j860wDenQi/6Ad394Y7+vLlTwbzWWUKH2VM4a2di3lh4WZ+M+Ywd/bJxtm5nNxmDg7pxsEuk7zMklxMlGsZqVQzVK1ggFpKHy1IN1cF8OGH8HXA97QZOX1vkdMPUysYo9QwRXIwX/KwRvKzS/JzMsJDaUs7N/Uo4t4hp/nj1D28tm417x2azX8Kx/GFJxHu7Av3x8F9vfjqzn6c9w7j38Xj+cehubyyah1PpN3AfYPSualnMSWt7Zxo5GGH4mOV5GWu5CJNrmOUXMMwpZKBqkE3sT824M0Aa/J8L72IBK2EoWo5KUo1kySjd7NCTJcd1b0UNqvD07WEewZm8HjaDbyyei3/vHEunxaM5wtvIvyyNzwaA4/FwIO9ufjzQZyrHckHZ6bxt83LeXb2Dh4ZfoLb4vKp6lBFRlMXezUf62QfCySjkh0j20lWqhislpOglQQaZ1ct8Faeb2/LpFOghWAppsT14Ai1ilS5llmSm2WSn82Sn0Oql7xrHDg7lXFnv0x+l3qAl1dcz7v7r+Pf+RO46EuE+3rD76PgiSi++l0sX9ybwOc3DePj/Im8s3shf160md+PPcxdCdnUdakgu5mTG3WjFb1Y8jBDcjJeqmWEXH1JC+GqAr6hFkKwdyN4Xjd5vljwvMjnJReLxWzlAdVLdlMHtR0q+EXfLH4z/iB/XrqBd/bO5995qQbwD/SGJ6Pg2Ui++lMMXzzah/O3D+bTirG8d3Aur61cx5Np+7l3UAaeHqUUtKzjSISXrYoxGDtLcpIq1TFSriZRraC/Vhq4nfpRAG/tWHa1GdeDJs8PELdTY2U70yQXCyUf10t+blC8ZDZxUtO+ktt65/Do2MO8uHgTf9+9kE9yJnLBNwwe7A1PR/HVS5F88WI0F5+I58K9AzjnSOGDkzP42/qVPDNjNw8OO8VN0UWUtLFzorGHHWqQ5ydJDoPn1QoGaMF8/qoH3ryhCrYPzKvBYNNsmFrBGNnOFMnFfMnHWsnPXsVLemMnVe2quLVXLg+PPsILCzfz9s5FfJI9ifO+JL56qA9fPRfNl69GcvHVaC4814sLj/Tjs5uS+ThrCm9vW8IL87bxyMhj3Norn8r21aQ3dbNHM0bD50tupkhOxsj2QD7f58cAvNk0a2NpmnWxmRck+cTrxtBrolrBaLmGyZKLeZKP1ZKf3YqP041dVLSt4qdxefw65SjPz9/C29sX83FmGue9SXz16z58+UI0F9+I4vyb0Zx/OY6Lj/fl858l8u+Ciby7ewEvL9rEb8ce4hd9c7B3qiTrWhf7dS8bxPzlNMnFWKmWZLWKQVoZffRiYvXCqx94s2lm7VZ2F93KXuI+dqhazii5hjTJyVzJy0pxMXKqkYuyNtXcHJvPQyOO8dy8rby1dQkfn03jc28yXz7cly9eiuHCW1F8/k40n/81lgtP9eH8nUP4tGw87x2Yy6vLr+fx1APc2T8TR1cjnz+oe9ksG7OX0yUX46VahitVDNLKjcuRHwvw1mvBrwN+kuRkjuRlheRjh+LjRCMXpW2q+UlMPg8OP8azc7fx1pYlfJwxmc89yXzxcAIX/xzD5+9Ece6f0Xz2VgwXnovn/K8G8Z/qMfzr8CxeX72GP07exz2D0nF3LyW/RR2HbR62yF6WSV5mSm4mSHWMUKoZ/L8R+BTRIp4tbqS2Kz6ON3JR0rqGm6ILeCD5OM/M2c5bm5fycboA/pEELvwlls/+GcV/3o/ms3ejufBSLy48MIBzdSl8cHw6b1y/kqem7eFXQ07j7VlMYctajkZ42GYBPjUM+LgfP/DBFnGKXE2q5GCW5GGZ5GWb7ONYhJvi1jX4owq5P+kEz8zezpublvLRmSl87knm4iMJXHglhnP/iuTTjyI5914k51+J5cLD/fjMPYIPT03lzY3LeXrmLu5LPIkvsoiiVnaORbjZJntZLnmZJXlIlRyMFLm8WUT9rwF+pFzNBKmOmZKbpZKXrbKXoxFuilrZ8UUWcV/SSZ6etYM3Ny0LAv9oX86/GsO593vy6cc9Ofd+T86/Fs3FRxP43DOcj85M4a1Ny3hm1g7uTzqBP6qQ4tY1HG/09cD3+j/gLwf4aAP4TwTwr0dz8bG+fO5N5qP0Kby1eSnPzA4F/pgF+Jn/B/x39PhPrB4vgD/zf8B/C443gLdy/NOzd1zC8edNjv84knP/iuT8qzFceCSBz9zD+fD0VN7cuIynZ+7kvmEn8f8fxwezmiDwRlZjAO9jm+LjWITLAN7MamZv583NS/k43RJc/xJjZDUfRHHuH9FceDmOCw/15zPHSD44MZ2/rV/Bn6bv5t6hp/D2LKaoVS3HRFYTArxSLaYO/ldkNd9DHv9yLJ+/G8W596L57O0YLjwfz/l7B/KfmtG8f2Qmf12zmien7OWXg408vqBFHUdsHrb+b8jj21wm8OGV68lLKtdtonKdHFK5nn87is/ejebzN2K58HRvzt89mE/Lx/HejXN4dcU6/jBxP3cNOIuzaxl5zR0c0j2icvUyQ3IzXqoLXAH+aIBvHdYyMHs1VuCDvRon8yQfqyQ/uxQfpxu5KG9bbfRqRh7lueu2hvRqvvx1X758MYaLf4vi/FvRnH8ljot/6Mv5nyfy76JU/rF3Pn9ZspHfjTvI7QnZ1HauINucs5GDvZpxkjHq8aPp1Xx9dzJfdCdLLulOrpH87FG8pDd2UWl2J0cd4fkFW3h7xyI+yRLdyV/34avno/nitUguvB7NhRfiuPhYAp/fnMTHOWn8fftiXpy/lcdGHeVn8XmWWygv10teFli6k8k/pu7kt+nHL5B8rJP87FO8nG3ipLp9JT+Lz+HRMYd5cdEm/r4rrB//TBRfvhzJF3+O5uKT8Vy4vz/nXCP58PR03ty4nGdn7eKh5JPcHFNIWdsaTjXxsEv1sVryMk9ykSY5GP1j7MebwF96A1UgbqBKjUkD2c50ycUi8wZK8ZLd1GncQPXJ5rFxh3hp6Ube2buAf+dabqCeioLnIvnymRi++E1vLtw5iP9UjeFfR2bz+uq1PDV5H/cNTsfbs4TCVrUcbWQ8/1khXotMlOpIkWuu7hsoE/yGr/5yBPDmm1hjbHuEWsUEuVYUT8a71YOql9xrHDg6lXNHQia/Tb2Rl5ev590bwu5c/xAFT0by1R9i+eKBvpz/aSKfFKXy7j6D3x8ff5C7+2Xh7FpObnMHB23G9PCSsDvXoWo5/bUS4q/GO1cr8KHz8sEpg+C8vCWHV6qZKNUxR0wZbJX8HNG8FDSrw92llLsHZPD4pP38ZdU6/nFATBn4EuFXveGxaPhtNDwcz8U7BvCZcwQfnp3CW1uX8vzc7Tw28hi/iM+jpmMVZ69xsU/zcb3sY6F4hj9WCk4ZmJfdV/WUQUNzNcZ4h3Ht10+M8Y0WjxSMcW0/OyU/J2weSlrU4u9ezK8Gn+GJKXt5de0a3js4x5ir8SbCXX3gwVh4MI6v7kngwk1D+bRsLO8dnUL9BdQAABG6SURBVM1ra9fw1NS9PDD0NDdHFVHWpoZTjUP5fbJcx2i5hiSlkkGWuZrIq2Wu5sonyQoCb2CTxCTZNMnBQsnDOsnPHtnPmUZuKlrXcHNkAfcnnuSpGbt4ff1K/nVkljFJ5kmE2xPgl/FwVx++vGUQn9tH8HF2Gn/fs9CYnxx3kLsTMnF3LSO/RR1HbF62yj6Wm/wu15KiGBMGxiRZ8dUzSRb+RqpZRNgjhYhgRmPMTuYFZieNBwpVTFDszJScLJGMid79qo/Mpi6q21Xxs9g8fj3caBe8sWk5HxybYQDvGga39odf9IVbBvCFcxj/KRzH+8dm8sbGFTwzZwcPDT/ObbF51LSvMiaGNR8bZD+LJS8zJCcTlFpGKNUMUSvop5Uas5P6VTA7GT4t3CwineYNTgtnG48T9Hx6iWnhwBSZXMtcycUKycs22c9h3UduMweOThXc3jubR0cd4bnrtvLm1iV8aA6t1iWBfzD8ZCBfOhM5Xzqaj09P5d09C3l5+XoeT9vPPYPS8fUopqSlmJFX/KyR/FwneZgqOxir2ElSjbtWsyt5VUwLW6klOKb99fPxMXoBvbViBqplJCmVjJFrmCI7mC+5WSP52KX6Od7IS1HLWjzdSrm7/1l+N+4gLy7axNvbFxvz8QXjuFg9gq8cw/iqbhgXylL4NHMS7x2YxxvrV/HM3O08POoot8XnUNupnJxrHNyoecTAqo/ZkptJch2j1OrAa+/AW6irZT6+oYcJwRchwaeXkTbzHZQxoj1cCb4IWSx5WC/72Kf5OdPUTXm7Gn4SVcR9Q87wh0n7eXnpev6+cyEfn5jGudwJnC8dxcWKkVwsHcW5rFQ+ODSLtzcv48+LN/P4pAP8ckg6vp5FlLap4VQjF7tlY8XiQsnLNMnFBLmWEZYXIfFigZzx5vUqA76l5bFx4KV32BuoeLHPJlGtIEU20sjZ4nn9ZtnPQZuPrGYuajpV8rNe+TyUfJKnpu7llRWWN1CZk/gsfzyf54/js6xUPj46g3d3LOLV5et5evoefj3iOLf1zsXeqYKcZqIpJhlBdY7kJs36KEE3+zNX8RsoI5M5G+btwd0GsTbj1d9A8QxnjGwXjTE3qyQv21U/Rxt5yW/pwNGtnNv75vBIyjGembE7+Orv8Ez+fWoKn6an8enpyXx8dAb/3D2fv65ZzXNzdvDbsYe5e0Am3p4lFLe2c6qJmz2qMTm2UPIYDxLMuXjrC2/LAqFOV9urv8ArkBBuN9+55gcXSqjljFSqmCDVMl1yGWmk7GOP5uNUUw8lbWrxRpZw98BMfjv2MM/N3ineuS7igwNz+OjwTD48PJP3D8zhH7sW8Ma6lbxw3RZ+n3oj9w89w09jC6juUEVWMycHI7xsUUxvN2biRwtvt3Yjzf01ncPfuf7/fNV9pcBbezPdQ1oExnRwkthnkCbmaJZJXjbJPg7YvJy91kVlh2puji3k3qHpPJ560HjZvWot72xZwr92z+dfe6/jn7sX8PetS3hj7SpeWriZJ9L28WDySX7ROxdnl3IKW9ZxorGH3WIefqHsYbpYoTJCqRItgmBvxlwIbW5sksKLk8tZOv99g9vwPhvrAtLQXQbWTCZaD75vHaoZS4MmKHamSU7mS8YzyO2Kj6MRHvJaOKjtUsHPeufxYPIpnphk7jJYx9sblvPu1iW8s2UJb21Ywesr1/LSgi08OWUfD484zh0J2Xi7l1LWxk5GEzf7dR+bFT/LJS9zZRdpStDbAw/OxC6D7pZdBu1smcHtHdaXdd9VXOrKgG94i1PzkEym/tUpUXo+cZoomLQykrRKRis1pMl1zJZcLJG8rJd87FW9nGrspri1HVf3Mm5PyOHXYnvHC3O388rSDbyxZjVvrlvJX1ev5pWl63lh7laenLyPR1KOcfeATG6KLKaqfQ3Z1zo5onvZLvL2BZKHGbKTCYqxMGioZnQie+tFxFi2d3S2ZdPeXCJR3+6wcJWXH3pfTX1rW0K2dtgsE8FiTVZ3PSfQ/u2tic0dajkjTW8XufsqycdWycdBzUNmUycV7arxRRZzV39jX80f0/bz3Oyd/HnBFl5ZsoFXlmzgpQWbeHbWTv4wcT+PjDzGPQMzuTmmkJqOVeQ1NzY17VZ8rJf9gWVBaUodY9QakrVKBunl9NVDCyZT7CWwr+abNjT9Ty0Kqm9zXytxtdfWmsXo2XS1bOUzu5CDtXJjV41aQ5pSx2zZyVLJw3rJ2J563OYhr1kd9g6V/CS6iLvNDU0TD/D09D08N3sHz8/dxvOzd/DUtD38fvxBHko+wd39M/lpTBG1nSopaFnHqSYe9mlGzFgespvM9PZy8YzeUFzoKfL2TmLXfNvLAf6H30l2JsSzw3dUthELI9oHeN3YxN0jZA+lcdkxTK0gRfRlppveLhtNqwOqlzON3RS3qMXZuULsJDvLwyNP8PvxB/lj2n6emrKPJ6fs44lJB/jN6CM8kHiaO/tm85PIYmo7VlHYso7TjQ1e3yK28RkbWJ2kyrWBxc8DxbL/OFEwmU/ozU3bbSKMXcOXuYWv4U1638Wai95LcBNf6I5icxNrR93cyhTcvhoXCKglDFHLGC62bKfJdcwRuwuul33sUnwc0b1kNXVR3tqOu2s5t8YVcPeATB5KPsVjo4/y23GH+d24w/xmzBEeGXmCe4ek84s+edzUswR7hyqKWjg409jNAc3HVsVo+y4Q+ydTA8s/KxmiiSX/5vN5sSDIuui53i18l7ND8vu0FhGmknFQlNG6+raDLSvA6cYqLOOSI1aoK/TTzXVYFYxWqpko1zJdMrZrr5KM/PoG1cfJRh5ymzmpNPdOxhZyR78c7h2SwYNJp3go+SQPJp3ivqHp3D0gi5/1ysfbo4zq9jUUNHdwprGHA5oxYbxavPSYGdi4WhMAvb9mgB6nm5mMuSbFsl37h1z4+XVm3br69ZtWhdqCZeVhlBBziRcCXYP04Jrb8YqxLGKuWGm+XvKyU/FxSPOR3thDQWDTajk/jS7m573zuatfNvcMyOSeAZncmZDNbfF53BxdjKtrORXt7OQ1d3KqkYcDmo9tsrGTZpHkZpbkJE2uZUzA08sZICTu4oSQlzVvt3L7ZW9aDV9L+22svr3E1t3C1g2rZo7eOSBtkRtY6m96eoJmPJc3FzuPV4zFzrPFEv/VkpctkuHtx3UfmU09FFl2C9/Us4xbYoq5La6Q2+IKuDWmkJ/0LMHdtQx7h2pKWteSfa2LE4283KAaS99MTzdAr2OsudhZBNM+WjG9LDIW3UzpoivdLRwA/Hvcph2+Y/7StebBlbahO4WNRf7xQvtvoFBQGK5WMlatJk2xM0N2MF9ysUJkMjtlX8g27eIWTqrb2nF0qsLTtQJf93L83cvwdSvD1bkCe/tqylvZKWjuIKOJm6M2L3tVP5slH6sl4w51lmgJjBPb9oaqxirzvhYFBXMtiilXat0rfFnbtL/L/vhwMXSrJvelUhZWtTRD/bJbvYuci0gQGlFDVCN1HC2EWqYLyYolkjugmrDHsj8+q4mHwmYuylvXUd2uhtoONdR2rKa2QzXV7Woob1VLQTMHWU1cnIrwcEg3FkJvlI33qgslNzMtnj5SrSJRrWCQAN1c7hlpWQRk1Ydta/uW++OvfFl/w1LRodquoco5hghjDj3DVpcboBczQC9jiMjXR1nWl8+WHSyUXawUignbTMUE1ccp3cvZxl5yr3FT2NxJScs6ylrVUdKqjuIWDvKbOQOAH9G83CA0Q9aLNu8Cyc1M2ckkoZQzQq0iUSs3VNK0oEKaGUyDW1WDQi31Lu6/HI2QK5GmuFQh4VKVnFBJuuwQgS6TWsxl/aZMxUC9lCG6oY6TolQxTqkhTTYkieZLLpaKDdqmOMs++SYOK35OaD5OR3g529hDdlM3Ode4yLnGRdY1LjKauDkV4eGo7mW/4mOnZFDLWiHSYizrdzBJqWWMWs0ItZKhqgF6gia0oS5RRQv19BBFNFMPMCL9+1fFCVfGqU8Vp7OeY1HGCepCRep5RGv5xGrG9tQ+WpEF9DKSdEOIa4xiUMxUkbNbVXFMcZa90k3cKPs5ovo5pvk4oXs5GeHlZISHExEeoYxjLPffrRjyFtdbhFnmSm6mSY6AQkKINkhACzCohGkqIVtVEupVxTHFWerbtNr8ijy+fv2Py9OBsgpxiSAqpIj6aEX004qDCmhaOSM0Q+9vvFJDWgM6UBsF1ewUC4H2y372K8ZWpgPCblC97FF9AS2o9bIhxrVUqKHNEmo4qbKxLziQvWil9NWKiReBNEoPyo8GtV8v1fxuFdIREDpQ4e3Z70OAK1x+yCovatV/MgE3FHCMatTUfzJALwmAPlyrIEUz5ERTv0b57HoxordF7KXZYZrsZ7ts5OObZUP9bK3kZaXkYansYYHsZo7sYrriMMS3VEP/KVkLBb2XFgykpu5fFwuvm3qvDQlwNah8Zp1dMVqyV671Z+VwU2rI1Pozi6FL5eYMyWjT0weIJc2JWjnJWgUjtUpGa0GRxakC+Hmyi4WSIa64QvIGZOeul3xskIxd7xskI1heL/h7lWQ8k1kkFG9my06mywbgE1Q7Y9QaRmpVDNMqAhVpIE/XgmoIXXVDZDc0mJ4VFBPU+gtvOl4TcQXqlq3Mfe7fALxVZMuqbmkVWQxXt4y1qFsmaFZ1y7KvVbecoTiYozi5TnaxUHazRDaULFdIXlZIXlYKWyF5WC6oZLHkYYHkZp6oQKcKwMcrQcCThMDiQEvvxVS96Rnm5YbmU2ao4FaA00N7XdZOb713rg0F21b1UM930XM1gBdq9Bahrfr0XFMseq6pqp00tZapSh0zFQezZSdzZSfzZUPpcqHVJDcLhK6roenqYqbsZJrsYJJcGwRcrSJJBNBBWhn99VL6WiRFzTZANz2UWqxCW0FON+glHHQrxlekYPxDCela9br71wO8qWA8yqJgnKramaTWMkWtY6riYLpiCOrOkq3mYKbsYIbiYJqpYqzWMVGtZbxqKJmZMtLhgPfWi4nTi4gROXogXdQv5fNwKdH6OD0c38vU7Lbk95dodofm7PVx/JV6fLhmd5JaznAL+KMDet3GAaSqtUxSa0lTa5ms1JJmsYlKLalC13ucWsMYrSag252kVQQB10pI0IrprRfRSxRFUaK1G5QWMtaQ1y8n9/Wc/q2Ab+i1nVWlPlxUMZTrQ1Xqe4aBbwoqmhVqf80CvlrOULUsRDB9pFbJKKFQP0arZoxawxghiG61MUKtPkWtYqRaZSjVC4XiIaL6DHp4Eb30QmJtBUTbgqqVoVlLqFJ9oEVyGZx+xcCbFsr5FgWbeqrWdrZQHb/QlkBQxdjMaqzg9xHg99NLArRjCOoawTZRq2CYVkGyVkmyVsnwEDPANS1ZrSRJNYAeqpUzWCtjkF7GAN0QRe+rF9Nb6HLH6gXE6PlE2vICuXlQOs4E3CyMLMWR7VKZ6MtRnLhs4L8t53cI4XyjUu2mh0pIGxlOfojn99GLDfF0rYR+WgkDNPMQyhisGT2bb7LBWhmDtDIGaKUBKjHALiJeZCqmEn2UqUpsyw14ebhen5Vawnsv38Tp3xn4K+X89mGc3yWkXWD1/tBCKs4MulqRkJM2Us0EcRD9tdLAoTRkCVoxfbVi+mhFxGtF9NKMeBKjFwQUiM3A2V1U0wbg9RdEra3VaKD3knFZnP6tgb88zs+4xOtN2ulgoZ1OQmo5JOjacukpXnRE2fKJtuUTYzMoyDyEeBGE4/UieguL/xrrJQJ3rKgXovT8QG+lh6ATg1JyA6LuHUOoRTS5IoI8bhWXbFGPp/9gwF8KfnhTLfSiw+r59XcngwVWd2E9xFumnuIhmflNiBEAXq4ZFGIAHqnn0UPPFVSSI0TODQcwLy0u5fIglQRv4uobg7nyybvvNLT6TZz/dWLq9fdygkHYWumaseDbWA8TcD2XbroJeBDsTuJzdAjj8pAUsYFr0Sull+8V+EuGksRTGatwYvBS5GxYBzO8bRy8GAnvZgYt54qsi+WfnfX6wM60lPxhgrc2YwqioSkJc8zx2wD//wDm0WJ34xyyYQAAAABJRU5ErkJggg==;rotation=-180;" vertex="1" parent="Jll_CNciHHkXU3aOFgfY-78">
          <mxGeometry x="18" y="8" width="72.37617030241255" height="81.61568140484819" as="geometry" />
        </mxCell>
        <mxCell id="Jll_CNciHHkXU3aOFgfY-80" value="" style="group;rotation=-180;" vertex="1" connectable="0" parent="Jll_CNciHHkXU3aOFgfY-78">
          <mxGeometry width="87.5609579973473" height="90" as="geometry" />
        </mxCell>
        <mxCell id="Jll_CNciHHkXU3aOFgfY-81" value="" style="verticalLabelPosition=bottom;verticalAlign=top;html=1;shape=mxgraph.basic.moon;strokeColor=#000000;strokeWidth=3;fillColor=none;rotation=-335;" vertex="1" parent="Jll_CNciHHkXU3aOFgfY-80">
          <mxGeometry x="13" y="9" width="60.97605006631733" height="72.37617030241255" as="geometry" />
        </mxCell>
        <mxCell id="Jll_CNciHHkXU3aOFgfY-82" value="" style="line;strokeWidth=2;html=1;fillColor=none;dashed=1;dashPattern=1 1;rotation=-180;" vertex="1" parent="Jll_CNciHHkXU3aOFgfY-80">
          <mxGeometry x="18" y="43" width="18.699322020337313" height="7.699592585363037" as="geometry" />
        </mxCell>
        <mxCell id="Jll_CNciHHkXU3aOFgfY-83" value="" style="line;strokeWidth=2;html=1;fillColor=none;rotation=-225;dashed=1;dashPattern=1 1;" vertex="1" parent="Jll_CNciHHkXU3aOFgfY-80">
          <mxGeometry x="28" y="62" width="16.561095198011788" height="7.699592585363037" as="geometry" />
        </mxCell>
        <mxCell id="Jll_CNciHHkXU3aOFgfY-84" value="" style="line;strokeWidth=2;html=1;fillColor=none;rotation=-135;dashed=1;dashPattern=1 1;" vertex="1" parent="Jll_CNciHHkXU3aOFgfY-80">
          <mxGeometry x="28" y="23" width="16.561095198011788" height="7.699592585363037" as="geometry" />
        </mxCell>
        <mxCell id="Jll_CNciHHkXU3aOFgfY-86" value="" style="endArrow=none;html=1;exitX=1;exitY=0;exitDx=0;exitDy=0;entryX=0;entryY=0;entryDx=0;entryDy=0;" edge="1" parent="1" source="Jll_CNciHHkXU3aOFgfY-77" target="Jll_CNciHHkXU3aOFgfY-63">
          <mxGeometry width="50" height="50" relative="1" as="geometry">
            <mxPoint x="620" y="240" as="sourcePoint" />
            <mxPoint x="750" y="140" as="targetPoint" />
          </mxGeometry>
        </mxCell>
        <mxCell id="Jll_CNciHHkXU3aOFgfY-87" value="" style="endArrow=none;html=1;exitX=0;exitY=1;exitDx=0;exitDy=0;entryX=1;entryY=1;entryDx=0;entryDy=0;" edge="1" parent="1" source="Jll_CNciHHkXU3aOFgfY-63" target="Jll_CNciHHkXU3aOFgfY-77">
          <mxGeometry width="50" height="50" relative="1" as="geometry">
            <mxPoint x="620" y="240" as="sourcePoint" />
            <mxPoint x="670" y="190" as="targetPoint" />
          </mxGeometry>
        </mxCell>
        <mxCell id="Jll_CNciHHkXU3aOFgfY-89" value="" style="endArrow=none;html=1;exitX=0.036;exitY=0.01;exitDx=0;exitDy=0;entryX=0;entryY=0.25;entryDx=0;entryDy=0;exitPerimeter=0;" edge="1" parent="1" source="Jll_CNciHHkXU3aOFgfY-79" target="Jll_CNciHHkXU3aOFgfY-41">
          <mxGeometry width="50" height="50" relative="1" as="geometry">
            <mxPoint x="620" y="240" as="sourcePoint" />
            <mxPoint x="670" y="190" as="targetPoint" />
          </mxGeometry>
        </mxCell>
        <mxCell id="Jll_CNciHHkXU3aOFgfY-90" value="" style="endArrow=none;html=1;exitX=0;exitY=1;exitDx=0;exitDy=0;entryX=0;entryY=0;entryDx=0;entryDy=0;" edge="1" parent="1" source="Jll_CNciHHkXU3aOFgfY-79" target="Jll_CNciHHkXU3aOFgfY-85">
          <mxGeometry width="50" height="50" relative="1" as="geometry">
            <mxPoint x="620" y="240" as="sourcePoint" />
            <mxPoint x="670" y="190" as="targetPoint" />
          </mxGeometry>
        </mxCell>
      </root>
    </mxGraphModel>
  </diagram>
</mxfile>
